PathFileType	4	(X/Y/Z)	36_2_rein_78_p1_0-373_filt_butterworth.trc
DataRate	CameraRate	NumFrames	NumMarkers	Units	OrigDataRate	OrigDataStartFrame	OrigNumFrames
44.0	44.0	5	27	m	44.0	233	373
Frame#	Time	RHip			RKnee			RAnkle			RBigToe			RSmallToe			RHeel			LHip			LKnee			LAnkle			LBigToe			LSmallToe			LHeel			Neck			Head			Nose			RShoulder			RElbow			RWrist			RThumb			RIndex			RPinky			LShoulder			LElbow			LWrist			LThumb			LIndex			LPinky			
		X1	Y1	Z1	X2	Y2	Z2	X3	Y3	Z3	X4	Y4	Z4	X5	Y5	Z5	X6	Y6	Z6	X7	Y7	Z7	X8	Y8	Z8	X9	Y9	Z9	X10	Y10	Z10	X11	Y11	Z11	X12	Y12	Z12	X13	Y13	Z13	X14	Y14	Z14	X15	Y15	Z15	X16	Y16	Z16	X17	Y17	Z17	X18	Y18	Z18	X19	Y19	Z19	X20	Y20	Z20	X21	Y21	Z21	X22	Y22	Z22	X23	Y23	Z23	X24	Y24	Z24	X25	Y25	Z25	X26	Y26	Z26	X27	Y27	Z27	
233	5.295454545454546	0.330415415440593	0.5445477167063593	-0.17050913129769418	0.3572467480017277	0.6612256985211287	0.28263636953967985	0.38451622430444865	0.7211741161705576	0.7128919772167274	0.32506803518569943	0.5081060290208841	0.7402357699606023	0.40166620581140167	0.5349327721232221	0.7420868297299963	0.3632335300609313	0.8280909822196413	0.7840182070064482	0.12515445048992685	0.5348702637227943	-0.1477743322472948	0.16154149153368552	0.6235225157614604	0.29890073331684613	0.19108389117669555	0.7340162682716636	0.7291358612699557	0.19559432636752577	0.549704189095512	0.7586653797364432	0.13510882920826667	0.6119704199165752	0.7807912033346516	0.21106871560888257	0.7993823416915592	0.7975386699498217	0.17586821230384994	0.4771923009302502	-0.7626713994701557	0.16028303290528662	0.3108879627465892	-1.010741773618238	0.15985991568708427	0.3135380373422303	-0.8397049454753727	0.34971659496232044	0.5555287315387076	-0.6971039196294008	0.37925136270641807	0.4063726019377686	-0.43369461958397265	0.25070593059899704	0.3686826400664094	-0.6301520993021965	0.1944884459258901	0.4138953897483091	-0.7458016576019126	0.19895373894235246	0.34155475210638353	-0.7563620414875063	0.19082202550831087	0.31269512666562504	-0.6823315509585134	0.013953740440419584	0.5282761108294464	-0.6795478999078063	-0.01252832174860768	0.5471380906347362	-0.38871245024845713	0.037581473077085356	0.4843366242712618	-0.12235397618275809	0.0893142885682533	0.4258377580680034	-0.03655746358415515	0.07228513416119117	0.45465257459756286	0.01737402889338915	0.034281215225855824	0.5029860439080922	0.005983941275314343
234	5.318181818181818	0.3307813561267943	0.5443333129490701	-0.16929082980162544	0.35724482813464	0.6611981542095005	0.282609187804056	0.3845194423763073	0.721208801980557	0.7129264737037659	0.3250521279409165	0.5081123318281346	0.740365959545578	0.4016109228973237	0.5349637477150817	0.7421965466540685	0.3631975069603786	0.8281240356545301	0.784142623791577	0.12557156515614387	0.5346115875117434	-0.147374915722621	0.16154437978546463	0.6235781342919071	0.29909743226589774	0.1909449294810505	0.7340135930978915	0.7291258754269675	0.19560918730784926	0.5497201941037132	0.7586635853174885	0.1351092680637097	0.6117831194805903	0.7807359128882386	0.2108695838172591	0.7989805247853499	0.7976323329937138	0.17583978299120562	0.47721689804347556	-0.7626932898865086	0.16029053562355472	0.31089810798799233	-1.0108454678675516	0.1595572189908855	0.31060174285863706	-0.8397189235037501	0.34971901956578133	0.555649349683337	-0.6970980964438513	0.379341149264835	0.4064888562183695	-0.4334454194357856	0.2528828803116521	0.37415588348065953	-0.6259201931360462	0.19062363243473002	0.41882939956331106	-0.7441641142344848	0.20250745410510518	0.34173867132875013	-0.75524292521355	0.19204209285573093	0.3126166146487878	-0.6798267042007822	0.013923082324907675	0.5282261476994404	-0.6794434194827889	-0.009273293274279788	0.538367818470175	-0.389415018735363	0.03751497829389203	0.4837111308889258	-0.12266016887530695	0.08930711963299588	0.4257406197259807	-0.03659783198966236	0.07257892813392187	0.4547813153002489	0.017048209383333346	0.034100524125294664	0.5030162898782672	0.007498607831361323
235	5.340909090909091	0.3309917424825358	0.5442492311311246	-0.16870817378070369	0.35724426223341244	0.6611693836596355	0.2825795875206384	0.38452729217517717	0.7212557578910166	0.7129718630963292	0.3249235411884119	0.5081092515106843	0.740462803144917	0.40150563990753096	0.5349403102960055	0.742329428152211	0.3631459308555778	0.8281038214044719	0.784281315318829	0.12583917289305846	0.5345425334341488	-0.14727580896209494	0.1615342009760657	0.6236018200551108	0.2991113118641425	0.19094746349644542	0.7339487110618759	0.7290926089611377	0.19559397452042399	0.5497080240267052	0.758657590827838	0.13510552201557408	0.6117248564999691	0.7807091917916849	0.21076020096362413	0.7988717184347487	0.7977594743408536	0.17580169448394997	0.4772540387595189	-0.7628154955492747	0.16039381217690765	0.31093566181459453	-1.0109129578521359	0.15986105075446916	0.31345900518234476	-0.8395926767953653	0.3496996276465678	0.5557715702497333	-0.6970890842364607	0.3795488919358776	0.4065940815691745	-0.43231359872403	0.254210639073477	0.37753702679960394	-0.6228805263444605	0.18863631225404337	0.41800982911930007	-0.7428790094584119	0.20484986798834015	0.34154306458855854	-0.7546611931519847	0.19242170710926412	0.31264852225454454	-0.6789008058236693	0.014002116651521318	0.528225008703839	-0.678385364201591	-0.008296178778453293	0.5364490141162371	-0.3899693275946487	0.03774449370638955	0.4842825540954281	-0.12253271546598428	0.08933504837388427	0.4260018539458866	-0.03623718842104906	0.07387113177038734	0.45264705006195144	0.01700839658144112	0.03559396845961557	0.5045094201929163	0.011663573156932937
236	5.363636363636363	0.3308758054167722	0.5443518646670433	-0.17042880944066316	0.3572495377392806	0.661153818797444	0.2825637373733402	0.3845356538438832	0.7213003220723602	0.7130048355809826	0.32471361091376577	0.5080912146816831	0.7405071344536542	0.4014014696979849	0.5349394010489648	0.742435517970202	0.36309884423698624	0.8279844246190724	0.7843575233916104	0.12573026558056677	0.5346924949501517	-0.14826916596418277	0.16155165352161524	0.623541484529221	0.2990637221432295	0.19096504814232318	0.7339661904388034	0.7290851160523597	0.19557367342344195	0.5497073425500526	0.7586616579334845	0.13510745342257796	0.611807553955043	0.7807186663181176	0.2108107545616975	0.7991721877710759	0.7978606025751487	0.17580896536490528	0.4773450359776744	-0.762653196199955	0.16031129576101133	0.3107456379099622	-1.0108541825093784	0.16074757355853375	0.3192093665070432	-0.83938212103729	0.34971033243798416	0.5558007891004761	-0.6970214229167144	0.37983764590974534	0.40672557333422377	-0.43061827838264344	0.2545689066566268	0.3779268195129875	-0.6202246304275164	0.1880716257618962	0.4171601848101816	-0.7415907603976638	0.20412992361504537	0.34084100918145854	-0.7543041471132055	0.1923625638205324	0.3126731752010845	-0.6790722473031069	0.014187264559874806	0.5282587279381461	-0.6767642815365017	-0.008577264901331498	0.5394244446018792	-0.39017834486924596	0.03886766861235214	0.4883522685675973	-0.12048797218480423	0.089455631399666	0.42709953812059087	-0.03512082361931969	0.0761053841262218	0.4474339105126264	0.017377454621457705	0.03918988602707202	0.5074052626291492	0.01719398996361904
237	5.386363636363637	0.33060718937696204	0.5444080573838515	-0.17321647702219506	0.3572453199382276	0.6611641446686397	0.28256692324437316	0.384535242060133	0.7213274483682602	0.7130084878881248	0.3245644010706518	0.5080382090432858	0.7405449401493632	0.40133616822354273	0.5349800745730471	0.7424894757420752	0.3630733162018908	0.8278748864029686	0.7843524228365806	0.12543248308240754	0.5348674980149877	-0.15039922695697694	0.16161406338271228	0.6234271051617538	0.2990839116352171	0.19089527328431988	0.7340397722070043	0.7291139296863107	0.19557859632523328	0.549686817551093	0.7586582312395075	0.1351259499707312	0.6118636190011868	0.7807053653591349	0.2109243894289021	0.7995973946279045	0.7980463181368316	0.17594933856773676	0.47764410459740253	-0.7615689794239855	0.1594521651755229	0.30996265858546435	-1.0106451184275291	0.16161571444655026	0.3229266145922133	-0.8395523509454871	0.3497366196027315	0.5557702819781036	-0.696851041059523	0.38002170620912656	0.4068918257560781	-0.42950957506657167	0.2547226197009637	0.3774521363039982	-0.6178014342840326	0.18847454285011842	0.4175550663052421	-0.7407101277915439	0.20169099451304198	0.33978698147125763	-0.7531047270655474	0.19247183164332973	0.3126356811200261	-0.6790075443651536	0.014326735224330388	0.5282796755069458	-0.6757408440460891	-0.008176104367423775	0.5411692417391221	-0.3902083084196008	0.04058350712770886	0.4945848461675603	-0.11680728654274641	0.09001684009434274	0.42754534746269046	-0.0341648593710696	0.07881876471876142	0.4405038922960656	0.017629041027105143	0.043024680607569234	0.5102716955708396	0.023033452812699855
